# xmcd
#
# Track frame offsets:
#	150
#	15151
#	34031
#	49992
#	71714
#	90118
#	108124
#	118799
#	137243
#	161884
#	181004
#	202884
#
# Disc length: 3255 seconds
#
# Revision: 0
# Processed by: cddbd v1.5.2PL0 Copyright (c) Steve Scherf et al.
# Submitted via: audiograbber 1.83.01
#
DISCID=930cb50c
DTITLE=Black Stamp Music - music*all
DYEAR=2009
DGENRE=Hip-Hop
TTITLE0=Les Illuminés Black Stamp - Music'all
TTITLE1=Busta Flex and Karl The Voice - Chanter
TTITLE2=Féfé and Le Black Stamp Bitch Crew - J'arrête tout
TTITLE3=Soklak and Brian Lucas - Mix it up
TTITLE4=Specta, Karl The Voice and Mihuma - Une larme
TTITLE5=Oxmo Puccino and Karl The Voice - Quand même
TTITLE6=Mihuma - Si j'étais peintre
TTITLE7=Casey - Vais-je grandir un jour?
TTITLE8=Kohndo and Brian Lucas - Don't let me down
TTITLE9=Marco Polo - Lève toi
TTITLE10=Sir Samuel - Qui la sauvera?
TTITLE11=Les Illuminés Black Stamp - Freedom
EXTD=
EXTT0=
EXTT1=
EXTT2=
EXTT3=
EXTT4=
EXTT5=
EXTT6=
EXTT7=
EXTT8=
EXTT9=
EXTT10=
EXTT11=
PLAYORDER=
